<?xml version="1.0" encoding="utf-8"?>
<!-- Generator: Adobe Illustrator 16.0.0, SVG Export Plug-In . SVG Version: 6.00 Build 0)  -->
<!DOCTYPE svg PUBLIC "-//W3C//DTD SVG 1.1//EN" "http://www.w3.org/Graphics/SVG/1.1/DTD/svg11.dtd">
<svg version="1.1" id="Layer_1" xmlns="http://www.w3.org/2000/svg" xmlns:xlink="http://www.w3.org/1999/xlink" x="0px" y="0px"
	 width="686.965px" height="686.965px" viewBox="1803.558 0 686.965 686.965" enable-background="new 1803.558 0 686.965 686.965"
	 xml:space="preserve">
<g>
	<path fill="#FFFFFF" d="M2147.04,9.72c-184.332,0-333.763,149.431-333.763,333.763s149.431,333.763,333.763,333.763
		s333.763-149.431,333.763-333.763S2331.372,9.72,2147.04,9.72z M1977.576,553.059l-9.775-0.029l-0.149-0.33
		c-63.885-3.635-114.174-42.576-114.174-89.254c0-41.629,40.016-76.478,93.963-86.134c0.022-0.036,0.047-0.077,0.071-0.114
		c31.995-4.042,95.55-8.144,130.408,16.319c13.002,9.122,20.456,21.157,22.796,36.788c1.703,11.383-0.959,20.594-8.133,28.176
		c-25.117,26.508-98.657,27.076-130.666,24.77c-2.65-0.229-4.365-0.367-4.983-0.42c-5.044-0.354-9.351,3.293-9.794,8.264
		c-0.432,4.977,3.227,9.379,8.198,9.848c0.432,0.043,1.758,0.162,3.845,0.318c54.595,4.516,188.99,17.346,213.28,27.359
		c12.708,5.23,26.215,15.551,36.439,24.428L1977.576,553.059z M2222.355,310.668c1.127,3.965,4.743,6.549,8.672,6.549
		c0.822,0,1.649-0.113,2.477-0.348l178.97-51.002c-35.312,47.794-100.895,110.917-179.496,168.066l51.318,81.031h61.498
		c10.525,0,19.055,8.527,19.055,19.045c0,10.527-8.529,19.055-19.055,19.055h-108.996l-66.104-76.975
		c-10.292,6.445-20.673,12.754-31.187,18.818c-4.096,2.363-8.996,4.264-14.495,5.787c-18.424-2.656-39.319-5.201-59.992-7.484
		c16.276-4.732,30.88-11.791,40.753-22.215c11.118-11.742,15.467-26.328,12.923-43.367c-3.069-20.529-13.271-37.016-30.335-48.979
		c-34.688-24.337-90.668-24.464-127.433-21.213c52.782-73.769,144.952-156.61,297.688-173.661
		c3.58-28.123,27.545-49.875,56.639-49.875c28.884,0,52.699,21.436,56.562,49.257c17.074,1.56,34.689,3.796,52.945,6.897
		c21.027,3.562,20.127,23.521,3.16,52.65l-199.36,56.814C2223.765,300.881,2220.987,305.877,2222.355,310.668z"/>
	<path fill="#FFFFFF" d="M2315.255,210.199c10.567,0,19.15-8.57,19.15-19.144c0-10.579-8.576-19.149-19.15-19.149
		c-10.566,0-19.144,8.57-19.144,19.149C2296.111,201.629,2304.688,210.199,2315.255,210.199z"/>
</g>
</svg>
