<?xml version="1.0" encoding="utf-8"?>
<!-- Generator: Adobe Illustrator 16.0.0, SVG Export Plug-In . SVG Version: 6.00 Build 0)  -->
<!DOCTYPE svg PUBLIC "-//W3C//DTD SVG 1.1//EN" "http://www.w3.org/Graphics/SVG/1.1/DTD/svg11.dtd">
<svg version="1.1" id="Layer_1" xmlns="http://www.w3.org/2000/svg" xmlns:xlink="http://www.w3.org/1999/xlink" x="0px" y="0px"
	 width="686.965px" height="686.965px" viewBox="0 0 686.965 686.965" enable-background="new 0 0 686.965 686.965"
	 xml:space="preserve">
<g>
	<path d="M343.482,9.72C159.15,9.72,9.72,159.151,9.72,343.483c0,184.333,149.431,333.763,333.763,333.763
		s333.763-149.432,333.763-333.763C677.245,159.151,527.814,9.72,343.482,9.72z M174.019,553.059l-9.775-0.028l-0.148-0.33
		c-63.886-3.635-114.175-42.576-114.175-89.254c0-41.629,40.017-76.479,93.964-86.134c0.021-0.037,0.047-0.078,0.07-0.114
		c31.995-4.042,95.551-8.144,130.408,16.319c13.002,9.121,20.456,21.156,22.796,36.787c1.703,11.383-0.959,20.595-8.133,28.177
		c-25.117,26.508-98.657,27.075-130.666,24.77c-2.65-0.229-4.365-0.367-4.983-0.42c-5.044-0.354-9.351,3.293-9.794,8.264
		c-0.432,4.978,3.228,9.379,8.198,9.849c0.432,0.043,1.758,0.161,3.845,0.317c54.595,4.517,188.99,17.347,213.28,27.359
		c12.708,5.229,26.215,15.551,36.439,24.428L174.019,553.059z M418.798,310.668c1.127,3.965,4.742,6.549,8.672,6.549
		c0.821,0,1.648-0.113,2.477-0.348l178.97-51.002c-35.312,47.794-100.895,110.917-179.495,168.065l51.317,81.031h61.498
		c10.525,0,19.056,8.527,19.056,19.045c0,10.527-8.529,19.056-19.056,19.056H433.24l-66.104-76.976
		c-10.292,6.445-20.673,12.754-31.188,18.818c-4.096,2.362-8.996,4.264-14.495,5.787c-18.424-2.656-39.318-5.201-59.991-7.484
		c16.275-4.732,30.88-11.791,40.753-22.215c11.118-11.742,15.467-26.328,12.923-43.367c-3.069-20.529-13.271-37.017-30.335-48.979
		c-34.688-24.336-90.668-24.463-127.434-21.213c52.782-73.769,144.952-156.609,297.688-173.661
		c3.58-28.123,27.545-49.875,56.639-49.875c28.885,0,52.699,21.436,56.562,49.257c17.074,1.56,34.688,3.796,52.944,6.897
		c21.027,3.562,20.127,23.521,3.16,52.65l-199.359,56.814C420.207,300.881,417.43,305.877,418.798,310.668z"/>
	<path d="M511.697,210.199c10.567,0,19.15-8.57,19.15-19.144c0-10.579-8.576-19.149-19.15-19.149
		c-10.565,0-19.144,8.57-19.144,19.149C492.554,201.629,501.13,210.199,511.697,210.199z"/>
</g>
</svg>
