<?xml version="1.0" standalone="no"?>
<!DOCTYPE svg PUBLIC "-//W3C//DTD SVG 20010904//EN"
 "http://www.w3.org/TR/2001/REC-SVG-20010904/DTD/svg10.dtd">
<svg version="1.0" xmlns="http://www.w3.org/2000/svg"
 width="1200.000000pt" height="1200.000000pt" viewBox="0 0 1200.000000 1200.000000"
 preserveAspectRatio="xMidYMid meet">
<metadata>
Created by potrace 1.11, written by Peter Selinger 2001-2013
</metadata>
<g transform="translate(0.000000,1200.000000) scale(0.100000,-0.100000)"
fill="#000000" stroke="none">
<path d="M9209 10156 c-2 -2 -26 -6 -54 -10 -102 -12 -262 -63 -355 -114 -54
-29 -143 -84 -150 -92 -3 -4 -16 -13 -29 -22 -76 -53 -220 -216 -276 -313 -81
-140 -137 -300 -154 -437 -1 -6 -27 -10 -146 -24 -27 -3 -62 -7 -76 -10 -15
-2 -47 -6 -70 -9 -49 -6 -91 -13 -129 -20 -14 -3 -43 -7 -65 -10 -22 -3 -65
-10 -95 -15 -30 -6 -77 -15 -105 -20 -79 -15 -221 -43 -270 -54 -5 -1 -46 -11
-90 -21 -44 -9 -114 -26 -155 -37 -41 -11 -86 -21 -100 -24 -14 -3 -34 -8 -45
-11 -11 -4 -24 -8 -30 -9 -65 -14 -544 -163 -615 -191 -8 -4 -17 -7 -20 -8 -3
-1 -14 -5 -25 -9 -11 -4 -45 -17 -75 -28 -76 -28 -401 -160 -480 -195 -101
-44 -527 -256 -610 -304 -455 -259 -797 -489 -1150 -773 -73 -59 -249 -206
-281 -236 -8 -8 -56 -51 -105 -95 -96 -86 -419 -406 -524 -520 -53 -57 -188
-212 -334 -385 -34 -41 -198 -250 -245 -315 -25 -33 -56 -76 -71 -95 -50 -66
-51 -64 36 -56 317 26 878 27 1094 1 19 -3 60 -7 90 -10 62 -7 97 -12 190 -26
36 -6 74 -12 85 -14 258 -41 560 -136 778 -246 290 -146 520 -353 658 -594 32
-56 45 -81 83 -167 19 -42 66 -188 72 -225 3 -15 9 -44 14 -63 22 -87 30 -270
17 -385 -15 -131 -72 -286 -152 -410 -54 -85 -224 -250 -327 -318 -144 -94
-314 -174 -502 -236 l-89 -29 54 -7 c30 -4 61 -9 69 -10 8 -2 47 -6 85 -9 39
-4 79 -9 90 -11 11 -2 47 -7 80 -10 33 -3 74 -7 90 -10 17 -2 56 -7 88 -10 32
-4 68 -8 80 -11 12 -2 47 -6 77 -9 30 -3 66 -7 80 -10 14 -2 45 -6 70 -9 25
-3 110 -15 190 -25 l144 -20 80 27 c118 39 291 134 652 357 134 83 177 106
184 99 4 -5 25 -29 46 -55 22 -25 62 -72 89 -104 28 -32 57 -66 65 -75 8 -8
150 -173 315 -365 165 -193 309 -361 321 -375 23 -26 207 -240 236 -275 9 -11
29 -33 43 -50 14 -16 65 -76 112 -131 l87 -102 1110 0 c1200 0 1169 -1 1262
53 218 128 254 432 71 604 -40 38 -99 73 -154 92 -30 10 -181 13 -687 14
l-648 0 -28 40 c-15 22 -121 189 -235 370 -115 182 -223 353 -240 380 -18 28
-144 225 -279 440 l-247 390 25 20 c13 11 41 31 61 45 20 14 42 30 48 35 7 6
110 84 230 175 120 91 242 183 270 205 57 44 499 401 534 431 11 11 40 35 63
53 24 19 48 40 54 45 6 6 38 33 71 60 33 27 65 54 70 60 6 6 39 36 75 66 36
30 67 57 70 60 3 3 86 77 185 165 266 237 453 414 749 711 152 151 392 401
443 461 11 12 50 56 89 99 38 42 74 82 79 88 6 6 35 40 65 76 30 36 57 67 60
70 8 7 182 220 205 251 11 14 46 60 78 101 31 41 57 77 57 80 0 4 -51 -9 -112
-27 -62 -18 -417 -119 -788 -225 -371 -105 -688 -196 -705 -201 -38 -12 -485
-139 -505 -144 -9 -2 -78 -21 -155 -43 -77 -22 -252 -73 -390 -112 -137 -39
-279 -80 -315 -90 -125 -37 -495 -141 -517 -146 -12 -2 -34 -9 -49 -14 -83
-32 -156 -18 -214 40 -42 42 -58 99 -46 165 7 37 54 98 89 116 11 6 131 43
266 81 326 92 494 140 621 177 160 46 1093 312 1110 316 39 10 294 83 860 245
80 23 152 43 160 45 8 2 47 13 85 25 39 11 78 22 88 25 30 7 411 116 437 125
14 4 110 32 213 61 l188 53 64 120 c68 130 113 234 152 361 21 66 26 102 27
205 1 118 0 128 -27 183 -44 88 -154 164 -264 181 -16 2 -48 8 -73 12 -25 4
-49 8 -55 9 -24 3 -115 17 -165 25 -30 5 -75 12 -100 15 -25 3 -56 7 -70 9
-14 3 -47 7 -75 10 -27 3 -61 8 -75 10 -14 3 -52 7 -85 11 -33 3 -96 10 -140
15 -44 5 -109 12 -145 16 -84 9 -89 9 -94 15 -2 2 -6 20 -9 39 -20 143 -106
342 -205 475 -171 229 -403 378 -687 441 -61 14 -336 29 -346 20z m273 -793
c75 -35 149 -105 183 -173 91 -181 25 -403 -150 -506 -43 -25 -53 -28 -129
-44 -113 -23 -241 18 -330 106 -172 170 -143 459 60 589 113 73 248 83 366 28z"/>
<path d="M2837 5354 c-1 -1 -92 -4 -202 -8 -110 -4 -220 -9 -245 -11 -25 -2
-76 -6 -115 -10 -38 -3 -83 -8 -100 -10 -16 -2 -61 -7 -100 -10 -38 -4 -88
-10 -110 -15 -22 -5 -55 -11 -72 -15 -166 -29 -406 -103 -615 -191 -102 -43
-300 -151 -398 -216 -509 -343 -789 -797 -792 -1288 -1 -140 4 -186 34 -315
29 -125 94 -289 151 -380 64 -103 89 -139 136 -200 67 -86 222 -241 316 -317
76 -60 226 -162 296 -201 24 -13 69 -38 99 -54 123 -68 481 -207 585 -227 11
-2 47 -11 80 -20 96 -24 342 -66 435 -72 47 -3 90 -9 95 -13 6 -3 1105 -6
2444 -7 l2433 -1 -47 43 c-123 113 -414 316 -562 392 -149 77 -310 122 -628
177 -49 8 -101 17 -115 19 -14 3 -43 7 -65 11 -22 3 -69 10 -105 16 -36 6 -81
12 -100 15 -19 2 -46 6 -60 9 -33 6 -74 12 -140 21 -30 4 -64 8 -75 9 -11 2
-58 8 -105 14 -47 7 -98 13 -115 16 -16 2 -91 11 -165 20 -74 9 -148 18 -165
20 -16 2 -52 7 -80 10 -27 3 -63 8 -80 10 -16 2 -61 7 -100 10 -38 4 -78 9
-88 11 -10 2 -48 6 -85 9 -37 4 -78 8 -92 10 -25 4 -92 11 -185 21 -27 3 -66
7 -85 9 -19 2 -64 7 -100 10 -36 3 -76 8 -90 10 -14 2 -56 6 -95 10 -38 3 -89
8 -112 11 -105 11 -132 13 -198 19 -38 3 -90 8 -115 11 -25 3 -67 7 -95 10
-27 2 -72 6 -100 9 -27 2 -85 7 -128 10 -43 4 -86 8 -96 10 -10 2 -55 6 -102
10 -46 4 -97 9 -114 10 -44 4 -184 16 -230 20 -39 3 -126 11 -234 21 -107 10
-171 70 -179 168 -5 68 23 125 80 163 47 32 77 33 313 18 233 -16 806 -10
1000 10 22 2 69 7 105 10 36 3 76 8 90 10 14 2 50 6 80 10 30 3 66 7 80 10 14
2 41 7 60 9 20 2 47 7 60 10 14 3 42 8 64 11 21 3 41 7 45 9 3 2 23 7 44 10
229 36 573 165 731 274 181 124 285 270 316 441 19 104 11 216 -25 381 -18 83
-78 218 -142 318 -52 82 -204 231 -303 297 -188 126 -517 256 -736 291 -21 3
-42 8 -45 10 -8 5 -251 42 -324 49 -33 3 -78 8 -100 10 -61 7 -513 23 -518 19z"/>
</g>
</svg>
